<svg width="100" height="100" viewBox="0 0 100 100" fill="none" xmlns="http://www.w3.org/2000/svg">
<path d="M64.8438 17.9688C69.4022 17.9688 73.7739 19.7796 76.9971 23.0029C80.2204 26.2261 82.0312 30.5978 82.0312 35.1562V64.8438C82.0312 69.4022 80.2204 73.7739 76.9971 76.9971C73.7739 80.2204 69.4022 82.0312 64.8438 82.0312H35.1562C30.5978 82.0312 26.2261 80.2204 23.0029 76.9971C19.7796 73.7739 17.9688 69.4022 17.9688 64.8438V35.1562C17.9688 30.5978 19.7796 26.2261 23.0029 23.0029C26.2261 19.7796 30.5978 17.9688 35.1562 17.9688H64.8438ZM64.8438 11.7188H35.1562C28.9459 11.7373 22.9953 14.2126 18.6039 18.6039C14.2126 22.9953 11.7373 28.9459 11.7188 35.1562V64.8438C11.7373 71.0541 14.2126 77.0047 18.6039 81.3961C22.9953 85.7874 28.9459 88.2627 35.1562 88.2812H64.8438C71.0541 88.2627 77.0047 85.7874 81.3961 81.3961C85.7874 77.0047 88.2627 71.0541 88.2812 64.8438V35.1562C88.2627 28.9459 85.7874 22.9953 81.3961 18.6039C77.0047 14.2126 71.0541 11.7373 64.8438 11.7188Z" fill="#FFA24C"/>
<path d="M70.4219 25C69.5365 25 68.671 25.2625 67.9348 25.7544C67.1987 26.2463 66.6249 26.9455 66.2861 27.7635C65.9472 28.5814 65.8586 29.4815 66.0313 30.3499C66.2041 31.2183 66.6304 32.0159 67.2565 32.642C67.8825 33.268 68.6802 33.6944 69.5485 33.8671C70.4169 34.0398 71.317 33.9512 72.135 33.6124C72.953 33.2735 73.6521 32.6998 74.144 31.9636C74.6359 31.2274 74.8984 30.3619 74.8984 29.4766C74.8984 28.8887 74.7826 28.3066 74.5577 27.7635C74.3327 27.2203 74.003 26.7268 73.5873 26.3112C73.1716 25.8955 72.6781 25.5657 72.135 25.3408C71.5919 25.1158 71.0097 25 70.4219 25Z" fill="#FFA24C"/>
<path d="M50.2109 36.3047C52.9435 36.3032 55.615 37.1122 57.8877 38.6293C60.1603 40.1464 61.9319 42.3036 62.9783 44.8278C64.0247 47.352 64.2989 50.1299 63.7662 52.81C63.2335 55.4901 61.9179 57.9519 59.9857 59.8841C58.0535 61.8163 55.5916 63.132 52.9115 63.6647C50.2314 64.1974 47.4536 63.9232 44.9293 62.8768C42.4051 61.8304 40.248 60.0588 38.7308 57.7862C37.2137 55.5135 36.4047 52.8419 36.4063 50.1094C36.4125 46.4501 37.8689 42.9424 40.4564 40.3549C43.0439 37.7673 46.5516 36.3109 50.2109 36.3047ZM50.2109 30.0547C46.2443 30.0624 42.369 31.2459 39.0747 33.4554C35.7804 35.6649 33.215 38.8014 31.7027 42.4685C30.1905 46.1355 29.7992 50.1686 30.5784 54.058C31.3575 57.9474 33.2721 61.5185 36.0802 64.3201C38.8884 67.1216 42.464 69.0279 46.3551 69.798C50.2463 70.5681 54.2785 70.1674 57.942 68.6465C61.6055 67.1257 64.736 64.553 66.9379 61.2536C69.1397 57.9542 70.314 54.0761 70.3125 50.1094C70.3115 47.4721 69.7905 44.8609 68.7794 42.4252C67.7682 39.9895 66.2868 37.777 64.4198 35.9143C62.5528 34.0516 60.3368 32.5754 57.8987 31.5699C55.4606 30.5645 52.8482 30.0496 50.2109 30.0547Z" fill="#FFA24C"/>
</svg>
