<svg width="512" height="512" viewBox="0 0 512 512" fill="none" xmlns="http://www.w3.org/2000/svg">
<path d="M271.215 320.081H240.783C231.612 320.081 226.275 330.984 231.937 338.229L247.153 357.685C248.216 359.009 249.562 360.078 251.093 360.812C252.624 361.546 254.3 361.927 255.998 361.927C257.696 361.927 259.372 361.546 260.903 360.812C262.434 360.078 263.781 359.009 264.844 357.685L280.062 338.226C281.359 336.568 282.163 334.579 282.383 332.486C282.604 330.393 282.232 328.28 281.309 326.388C280.387 324.497 278.952 322.902 277.167 321.787C275.382 320.672 273.32 320.08 271.215 320.081Z" fill="#FFA24C"/>
<path d="M204.627 226.563C200.618 226.567 196.775 228.162 193.941 230.996C191.106 233.831 189.512 237.674 189.507 241.683V252.329C189.507 256.339 191.1 260.185 193.936 263.02C196.771 265.856 200.617 267.449 204.627 267.449C208.637 267.449 212.483 265.856 215.319 263.02C218.154 260.185 219.747 256.339 219.747 252.329V241.683C219.742 237.674 218.148 233.831 215.313 230.996C212.479 228.162 208.636 226.567 204.627 226.563Z" fill="#FFA24C"/>
<path d="M307.371 226.563C303.363 226.567 299.52 228.162 296.685 230.996C293.851 233.831 292.256 237.674 292.252 241.683V252.329C292.252 256.339 293.845 260.185 296.68 263.02C299.516 265.856 303.361 267.449 307.371 267.449C311.382 267.449 315.227 265.856 318.063 263.02C320.899 260.185 322.491 256.339 322.491 252.329V241.683C322.487 237.674 320.892 233.831 318.058 230.997C315.223 228.162 311.38 226.567 307.371 226.563Z" fill="#FFA24C"/>
<path d="M423.69 183.348L376.964 147.07C373.219 144.115 368.758 142.203 364.035 141.529C359.312 140.855 354.495 141.442 350.072 143.231C341.202 129.781 329.143 118.735 314.968 111.076C300.794 103.417 284.945 99.3841 268.834 99.3356H243.165C228.728 99.3085 214.467 102.511 201.427 108.709C188.388 114.907 176.9 123.943 167.805 135.156C165.702 137.741 163.737 140.435 161.916 143.226C157.495 141.439 152.679 140.854 147.958 141.529C143.237 142.204 138.778 144.116 135.034 147.069L88.3092 183.346C78.105 191.192 71.0702 202.452 68.4943 215.064C65.9184 227.675 67.974 240.793 74.2842 252.012L115.308 325.76C118.157 330.908 122.588 335.002 127.945 337.436C133.302 339.869 139.3 340.513 145.051 339.272C150.836 338.118 156.084 335.1 159.991 330.68C163.899 326.26 166.251 320.682 166.687 314.799L166.843 313.015C168.203 324.524 168.889 336.102 168.898 347.691V370.629C168.899 376.66 170.197 382.619 172.704 388.104C175.211 393.588 178.869 398.469 183.43 402.415C187.99 406.361 193.346 409.279 199.134 410.972C204.922 412.665 211.007 413.092 216.975 412.226L256 406.554L295.025 412.226C300.993 413.093 307.078 412.666 312.866 410.973C318.654 409.281 324.01 406.362 328.571 402.416C333.131 398.47 336.789 393.589 339.296 388.104C341.803 382.62 343.1 376.66 343.1 370.629V347.691C343.11 336.101 343.796 324.522 345.156 313.012L345.313 314.8C345.749 320.683 348.101 326.261 352.008 330.681C355.916 335.1 361.163 338.118 366.948 339.273C372.7 340.514 378.698 339.869 384.055 337.435C389.412 335.002 393.843 330.908 396.692 325.76L437.717 252.012C444.027 240.793 446.081 227.676 443.505 215.064C440.929 202.453 433.894 191.193 423.69 183.348ZM166.503 170.049L153.937 313.684C153.663 316.812 152.392 319.771 150.312 322.124C148.231 324.477 145.451 326.1 142.379 326.756C139.307 327.411 136.106 327.063 133.246 325.764C130.387 324.465 128.019 322.283 126.492 319.538L85.47 245.79C80.6608 237.24 79.0943 227.242 81.0575 217.631C83.0207 208.019 88.3821 199.437 96.1591 193.457L142.884 157.179C145.139 155.428 147.856 154.373 150.702 154.144C153.547 153.914 156.398 154.519 158.905 155.885C161.412 157.251 163.466 159.318 164.816 161.834C166.165 164.35 166.752 167.205 166.503 170.049ZM336.734 284.84C332.46 305.518 330.305 326.577 330.3 347.691V370.629C330.3 374.823 329.398 378.968 327.654 382.782C325.911 386.597 323.367 389.991 320.195 392.735C317.023 395.48 313.298 397.509 309.273 398.686C305.248 399.863 301.016 400.16 296.866 399.557L256.92 393.754C256.31 393.667 255.69 393.667 255.079 393.754L215.134 399.557C210.984 400.16 206.752 399.864 202.726 398.687C198.701 397.51 194.975 395.48 191.804 392.736C188.632 389.992 186.088 386.597 184.344 382.783C182.6 378.968 181.698 374.823 181.698 370.629V347.691C181.694 326.577 179.538 305.518 175.264 284.84L171.078 264.607L179.253 171.165C179.599 167.444 179.172 163.691 177.997 160.144C176.822 156.596 174.925 153.33 172.426 150.552C174.06 148.019 175.83 145.578 177.729 143.238C185.627 133.502 195.602 125.656 206.924 120.274C218.246 114.892 230.629 112.112 243.165 112.135H268.834C281.37 112.112 293.752 114.893 305.074 120.274C316.396 125.655 326.371 133.501 334.268 143.237C336.16 145.587 337.922 148.038 339.547 150.581C337.056 153.358 335.166 156.62 333.996 160.162C332.825 163.704 332.399 167.45 332.745 171.165L340.92 264.604L336.734 284.84ZM426.531 245.79L385.508 319.538C383.98 322.283 381.613 324.465 378.753 325.764C375.894 327.063 372.693 327.411 369.621 326.756C366.549 326.1 363.769 324.477 361.688 322.124C359.607 319.771 358.337 316.813 358.062 313.684L345.495 170.049C345.198 167.199 345.763 164.325 347.118 161.8C348.472 159.274 350.554 157.214 353.094 155.885C355.596 154.505 358.45 153.892 361.298 154.122C364.147 154.352 366.865 155.415 369.114 157.179L415.84 193.457C423.617 199.437 428.979 208.019 430.942 217.63C432.906 227.242 431.34 237.239 426.531 245.79Z" fill="#FFA24C"/>
<path d="M132.686 192.336C130.82 192.336 128.972 192.704 127.248 193.418C125.524 194.132 123.958 195.178 122.638 196.498C121.319 197.818 120.272 199.384 119.558 201.108C118.844 202.832 118.476 204.68 118.476 206.546V223.066C118.476 226.835 119.973 230.449 122.638 233.114C125.303 235.779 128.917 237.276 132.686 237.276C136.455 237.276 140.069 235.779 142.734 233.114C145.399 230.449 146.896 226.835 146.896 223.066V206.546C146.896 202.777 145.399 199.163 142.734 196.498C140.069 193.833 136.455 192.336 132.686 192.336Z" fill="#FFA24C"/>
<path d="M380.185 203.657V193.313C380.185 181.84 362.389 181.839 362.389 193.313V203.657C362.389 215.13 380.185 215.131 380.185 203.657Z" fill="#FFA24C"/>
<path d="M278.524 124.775C277.216 124.775 275.922 125.033 274.714 125.533C273.507 126.033 272.41 126.766 271.485 127.691C270.561 128.615 269.828 129.712 269.328 130.92C268.827 132.127 268.57 133.422 268.57 134.729V142.542C268.57 155.369 288.477 155.377 288.477 142.542V134.729C288.477 133.422 288.22 132.127 287.72 130.92C287.219 129.712 286.486 128.615 285.562 127.691C284.638 126.766 283.54 126.033 282.333 125.533C281.125 125.033 279.831 124.775 278.524 124.775Z" fill="#FFA24C"/>
<path d="M300.103 191.175C301.058 191.175 302.003 190.987 302.885 190.622C303.767 190.257 304.568 189.722 305.243 189.047C305.918 188.372 306.453 187.571 306.818 186.689C307.184 185.807 307.371 184.862 307.371 183.907V178.203C307.371 168.844 292.836 168.816 292.836 178.203V183.907C292.836 184.862 293.024 185.807 293.389 186.689C293.754 187.571 294.289 188.372 294.964 189.047C295.639 189.722 296.44 190.257 297.322 190.622C298.204 190.987 299.149 191.175 300.103 191.175Z" fill="#FFA24C"/>
<path d="M234.534 167.583V157.008C234.534 153.435 233.114 150.008 230.588 147.481C228.061 144.955 224.634 143.536 221.061 143.536C217.488 143.536 214.062 144.955 211.535 147.481C209.008 150.008 207.589 153.435 207.589 157.008V167.583C207.589 171.156 209.008 174.583 211.535 177.109C214.062 179.636 217.488 181.055 221.061 181.055C224.634 181.055 228.061 179.636 230.588 177.109C233.114 174.583 234.534 171.156 234.534 167.583Z" fill="#FFA24C"/>
<path d="M376.825 267.855C375.116 267.855 373.477 268.534 372.268 269.743C371.059 270.951 370.38 272.591 370.38 274.3V281.793C370.38 290.092 383.271 290.108 383.271 281.793V274.3C383.27 272.591 382.591 270.951 381.383 269.743C380.174 268.534 378.535 267.855 376.825 267.855Z" fill="#FFA24C"/>
<path d="M405.727 211.446C404.251 211.446 402.789 211.737 401.424 212.302C400.06 212.867 398.821 213.695 397.776 214.739C396.732 215.783 395.904 217.023 395.339 218.387C394.774 219.751 394.483 221.213 394.483 222.69V235.762C394.492 238.738 395.681 241.59 397.788 243.691C399.896 245.792 402.751 246.972 405.727 246.972C408.704 246.972 411.558 245.792 413.666 243.691C415.774 241.59 416.962 238.738 416.971 235.762V222.69C416.971 221.213 416.681 219.751 416.116 218.387C415.55 217.023 414.722 215.783 413.678 214.739C412.634 213.695 411.394 212.867 410.03 212.302C408.666 211.737 407.204 211.446 405.727 211.446Z" fill="#FFA24C"/>
<path d="M118.476 255.339C117.47 255.339 116.475 255.537 115.545 255.922C114.616 256.306 113.772 256.87 113.061 257.582C112.35 258.293 111.786 259.137 111.401 260.066C111.016 260.995 110.818 261.991 110.818 262.997V271.9C110.818 281.771 126.135 281.792 126.135 271.9V262.996C126.134 260.965 125.328 259.018 123.891 257.582C122.455 256.145 120.507 255.339 118.476 255.339Z" fill="#FFA24C"/>
</svg>
