<svg width="50" height="50" viewBox="0 0 50 50" fill="none" xmlns="http://www.w3.org/2000/svg">
<path d="M47.8897 17.8467C47.3477 16.5586 46.4473 15.6299 45.2852 15.1621L45.2695 15.1563C44.7406 14.949 44.1775 14.8431 43.6094 14.8438H43.5469C40.8867 14.8838 38.1709 17.1445 36.79 20.4697C35.7774 22.9014 35.6611 25.5166 36.4795 27.4658C37.0205 28.7549 37.9229 29.6836 39.0899 30.1514L39.1025 30.1563C39.6316 30.3633 40.1946 30.4692 40.7627 30.4688C43.4483 30.4688 46.1924 28.208 47.5986 24.8389C48.5986 22.4102 48.709 19.7969 47.8897 17.8467Z" fill="#FFA24C"/>
<path d="M37.2607 32.1885C35.7266 31.2666 34.2764 30.3945 33.3291 28.8281C30.7158 24.4922 29.1377 21.875 25 21.875C20.8623 21.875 19.2803 24.4922 16.6611 28.8281C15.7119 30.3965 14.2588 31.2695 12.7197 32.1953C10.9551 33.2559 9.13184 34.3516 8.34473 36.5078C8.03873 37.2852 7.88459 38.1139 7.89063 38.9492C7.89063 42.46 10.625 45.3164 13.9844 45.3164C15.7178 45.3164 17.5625 44.7158 19.5147 44.0801C21.3916 43.4688 23.332 42.8369 25.0098 42.8369C26.6875 42.8369 28.623 43.4688 30.4932 44.0801C32.4414 44.7119 34.2773 45.3125 36.0156 45.3125C39.3701 45.3125 42.0996 42.4561 42.0996 38.9453C42.1023 38.1094 41.9449 37.2806 41.6357 36.5039C40.8486 34.3457 39.0244 33.249 37.2607 32.1885Z" fill="#FFA24C"/>
<path d="M14.6484 18.4424C15.8105 19.9004 17.2852 20.7031 18.8008 20.7031C19.0077 20.7031 19.2144 20.6878 19.4189 20.6572C22.5801 20.1924 24.5498 16.335 23.9033 11.8682C23.6328 9.99023 22.9102 8.24121 21.875 6.94434C20.7148 5.48926 19.2383 4.6875 17.7236 4.6875C17.5167 4.68751 17.3101 4.70285 17.1055 4.7334C13.9443 5.19824 11.9746 9.05566 12.6211 13.5225C12.8906 15.3975 13.6133 17.1445 14.6484 18.4424Z" fill="#FFA24C"/>
<path d="M30.582 20.6572C30.7866 20.6878 30.9933 20.7031 31.2002 20.7031C32.7168 20.7031 34.1904 19.9004 35.3525 18.4424C36.3867 17.1445 37.1055 15.3975 37.3789 13.5205C38.0254 9.05566 36.0557 5.19824 32.8945 4.73145C32.6899 4.7009 32.4833 4.68556 32.2764 4.68555C30.7617 4.6875 29.2852 5.48926 28.125 6.94434C27.0898 8.24121 26.3672 9.99024 26.0977 11.8701C25.4512 16.335 27.4209 20.1924 30.582 20.6572Z" fill="#FFA24C"/>
<path d="M10.8975 30.1563L10.9111 30.1514C12.0762 29.6836 12.9775 28.7559 13.5176 27.4678C14.3359 25.5147 14.2207 22.9023 13.21 20.4707C11.8105 17.1055 9.06738 14.8438 6.38477 14.8438C5.81668 14.843 5.25352 14.9489 4.72461 15.1563L4.71094 15.1611C3.54883 15.625 2.64746 16.5566 2.10742 17.8447C1.28906 19.7979 1.4043 22.4102 2.41504 24.8418C3.81445 28.207 6.55762 30.4688 9.24024 30.4688C9.80733 30.4692 10.3694 30.3632 10.8975 30.1563Z" fill="#FFA24C"/>
</svg>
