<svg width="100" height="100" viewBox="0 0 100 100" fill="none" xmlns="http://www.w3.org/2000/svg">
<path fill-rule="evenodd" clip-rule="evenodd" d="M94.668 25.7812C95.3633 23.5781 94.668 21.9766 91.5918 21.9766H81.3633C78.7832 21.9766 77.5918 23.3789 76.8965 24.8789C76.8965 24.8789 71.6348 37.6914 64.2871 45.998C61.9043 48.4004 60.8125 49.2012 59.5215 49.2012C58.8262 49.2012 57.9316 48.4004 57.9316 46.1992V25.6777C57.9316 23.0762 57.1387 21.875 54.9531 21.875H38.8672C37.2773 21.875 36.2852 23.0762 36.2852 24.2773C36.2852 26.7793 39.959 27.3809 40.3555 34.3867V49.6094C40.3555 52.9121 39.7695 53.5156 38.4688 53.5156C34.9941 53.5156 26.5547 40.6035 21.4922 25.8906C20.5078 22.9766 19.5078 21.875 16.9258 21.875H6.59961C3.62109 21.875 3.125 23.2754 3.125 24.7773C3.125 27.4805 6.59961 41.0918 19.3086 59.1074C27.748 71.4121 39.7617 78.0254 50.584 78.0254C57.1387 78.0254 57.9316 76.5234 57.9316 74.0215V64.7129C57.9316 61.7109 58.5273 61.2109 60.6133 61.2109C62.1016 61.2109 64.7832 62.0098 70.8398 67.916C77.7891 74.9219 78.9805 78.125 82.8535 78.125H93.0801C96.0586 78.125 97.4492 76.623 96.6543 73.7207C95.7617 70.8184 92.3848 66.6152 88.0156 61.6113C85.6328 58.8105 82.0586 55.707 80.9668 54.2051C79.4785 52.2031 79.875 51.4023 80.9668 49.6016C80.8672 49.6016 93.3789 31.7852 94.668 25.7734" fill="#FFA24C"/>
</svg>
